<?xml version="1.0" standalone="no"?>
<!DOCTYPE svg PUBLIC "-//W3C//DTD SVG 20010904//EN"
 "http://www.w3.org/TR/2001/REC-SVG-20010904/DTD/svg10.dtd">
<svg version="1.0" xmlns="http://www.w3.org/2000/svg"
 width="512.000000pt" height="512.000000pt" viewBox="0 0 512.000000 512.000000"
 preserveAspectRatio="xMidYMid meet">
<metadata>
Created by potrace 1.16, written by Peter Selinger 2001-2019
</metadata>
<g transform="translate(0.000000,512.000000) scale(0.100000,-0.100000)"
fill="#000000" stroke="none">
<path d="M2356 5104 c-210 -41 -385 -134 -543 -287 -171 -166 -281 -380 -314
-608 -11 -78 -11 -90 4 -113 32 -48 109 -46 134 4 6 14 19 65 28 114 43 237
188 456 394 595 255 173 600 201 883 73 261 -118 465 -374 522 -654 29 -142
17 -336 -29 -473 -32 -94 -83 -180 -349 -594 l-266 -413 0 -69 c0 -57 -11 -91
-25 -77 -2 2 40 764 45 796 0 1 29 2 65 2 147 0 239 89 238 230 0 103 -42 168
-133 209 -88 40 -180 22 -251 -49 -49 -49 -69 -102 -69 -184 l0 -46 -130 0
-130 0 0 46 c0 82 -20 135 -69 184 -71 71 -163 89 -251 49 -91 -41 -133 -106
-133 -209 -1 -140 91 -230 237 -230 l64 0 6 -62 c3 -35 13 -187 21 -338 8
-151 18 -304 21 -339 4 -44 3 -61 -5 -57 -6 4 -11 37 -11 75 l0 69 -266 413
c-147 228 -281 443 -299 479 -32 63 -75 181 -75 205 0 23 -46 55 -79 55 -39 0
-81 -38 -81 -74 0 -35 54 -194 89 -263 16 -32 147 -240 290 -463 260 -403 261
-405 261 -460 1 -69 27 -129 74 -166 l36 -29 0 -85 c1 -126 41 -203 135 -253
35 -19 56 -22 170 -22 114 0 135 3 170 22 94 50 134 127 135 253 l0 85 36 29
c47 37 73 97 74 166 0 55 1 57 261 460 275 427 301 472 342 587 59 164 75 401
38 578 -88 425 -427 759 -854 840 -98 19 -316 18 -411 -1z m-111 -1429 c19
-18 25 -35 25 -70 l0 -45 -48 0 c-36 0 -54 5 -67 20 -26 29 -24 79 4 102 31
25 57 23 86 -7z m716 7 c28 -23 30 -73 4 -102 -13 -15 -31 -20 -67 -20 l-48 0
0 45 c0 77 59 118 111 77z m-286 -339 c-5 -48 -45 -722 -45 -746 0 -4 -31 -7
-70 -7 -38 0 -70 3 -70 7 0 24 -40 698 -45 746 l-5 57 120 0 120 0 -5 -57z
m35 -972 c0 -59 -4 -74 -24 -98 -23 -27 -27 -28 -121 -28 -94 0 -98 1 -121 28
-20 24 -24 39 -24 98 l0 69 145 0 145 0 0 -69z"/>
<path d="M1036 4829 c-20 -15 -26 -29 -26 -57 0 -20 4 -42 8 -48 4 -6 49 -48
100 -92 82 -73 97 -82 132 -82 30 0 43 6 59 26 38 48 29 72 -61 158 -127 121
-160 136 -212 95z"/>
<path d="M3995 4831 c-16 -10 -67 -54 -113 -97 -90 -86 -99 -110 -61 -158 16
-20 29 -26 59 -26 35 0 50 9 132 82 51 44 96 86 100 92 4 6 8 28 8 48 0 28 -6
42 -26 57 -33 26 -60 26 -99 2z"/>
<path d="M1113 4142 c-91 -82 -98 -91 -101 -129 -4 -51 25 -83 74 -83 27 0 50
15 126 81 111 97 118 105 118 140 0 44 -35 79 -80 79 -34 0 -49 -10 -137 -88z"/>
<path d="M3821 4204 c-24 -30 -27 -72 -8 -96 6 -9 54 -52 105 -97 76 -66 99
-81 126 -81 49 0 78 32 74 83 -3 38 -10 47 -101 129 -88 78 -103 88 -137 88
-30 0 -43 -6 -59 -26z"/>
<path d="M793 3420 c-37 -22 -73 -86 -73 -130 l0 -30 -156 0 c-213 0 -256 -13
-303 -91 -21 -34 -21 -35 -21 -1411 0 -1323 1 -1379 19 -1437 45 -144 159
-257 306 -305 46 -15 226 -16 2015 -14 l1965 3 66 32 c123 60 212 162 250 284
18 58 19 114 19 1437 0 1376 0 1377 -21 1411 -47 78 -91 91 -298 91 l-151 0 0
33 c0 44 -30 97 -70 125 -33 22 -36 22 -381 22 -336 0 -350 -1 -369 -20 -21
-21 -26 -69 -10 -100 19 -35 64 -40 371 -40 l299 0 0 -470 0 -471 25 -24 c32
-33 78 -33 110 0 l25 24 0 381 0 381 153 -3 152 -3 3 -1349 2 -1348 -27 -60
c-31 -70 -101 -138 -171 -165 -45 -17 -128 -18 -1917 -21 -1182 -2 -1893 1
-1933 7 -117 18 -201 80 -246 181 l-26 58 2 1348 3 1349 158 3 157 3 0 -1308
0 -1307 21 -44 c15 -29 37 -54 67 -73 l46 -29 1711 0 1711 0 46 29 c30 19 52
44 67 73 21 44 21 47 21 842 l0 797 -25 24 c-32 33 -78 33 -110 0 l-25 -24 0
-556 0 -555 -647 0 c-687 0 -688 0 -798 -49 -27 -12 -73 -40 -102 -61 l-52
-40 -3 491 -3 491 -28 24 c-36 30 -68 30 -104 0 l-28 -24 -3 -491 -3 -491 -52
40 c-29 21 -75 49 -102 61 -98 44 -139 49 -381 49 -228 0 -231 0 -252 -23 -27
-29 -28 -77 -3 -108 19 -24 22 -24 258 -29 259 -6 282 -11 367 -70 72 -49 131
-131 156 -219 l9 -31 -790 2 c-689 3 -791 5 -799 18 -5 8 -10 79 -10 158 l0
142 280 0 c296 0 319 3 339 47 16 35 14 57 -10 87 l-20 26 -295 0 -294 0 0
1155 0 1155 299 0 c307 0 352 5 371 40 16 31 11 79 -10 100 -19 19 -33 20
-367 20 -328 0 -350 -1 -380 -20z m3457 -2752 c0 -79 -5 -150 -10 -158 -8 -13
-110 -15 -799 -18 l-790 -2 9 31 c36 126 130 225 253 269 48 17 95 19 695 19
l642 1 0 -142z"/>
<path d="M1027 2572 c-23 -26 -22 -94 1 -115 17 -15 61 -17 429 -17 393 0 411
1 427 19 10 11 18 36 18 56 0 20 -8 45 -18 56 -16 18 -34 19 -429 19 -386 0
-413 -1 -428 -18z"/>
<path d="M3246 2571 c-10 -11 -18 -36 -18 -56 0 -20 8 -45 18 -56 16 -18 34
-19 429 -19 386 0 413 1 428 18 21 23 22 81 1 110 l-15 22 -413 0 c-396 0
-414 -1 -430 -19z"/>
<path d="M1161 2184 c-34 -43 -21 -102 26 -123 16 -7 161 -11 457 -11 423 0
434 0 460 21 33 26 37 88 6 119 -19 19 -33 20 -474 20 l-455 0 -20 -26z"/>
<path d="M3020 2190 c-31 -31 -27 -93 6 -119 26 -21 37 -21 460 -21 296 0 441
4 457 11 47 21 60 80 26 123 l-20 26 -455 0 c-441 0 -455 -1 -474 -20z"/>
<path d="M1184 1838 c-23 -11 -44 -48 -44 -77 0 -10 9 -30 21 -45 l20 -26 455
0 c441 0 455 1 474 20 28 28 27 90 -1 116 -20 18 -44 19 -463 21 -292 1 -448
-2 -462 -9z"/>
<path d="M3050 1843 c-52 -19 -69 -94 -30 -133 19 -19 33 -20 474 -20 l455 0
20 26 c34 43 21 102 -26 123 -25 11 -862 15 -893 4z"/>
<path d="M1165 1455 c-16 -15 -25 -36 -25 -55 0 -19 9 -40 25 -55 l24 -25 444
0 c434 0 445 0 471 21 34 27 37 88 4 119 -21 20 -33 20 -470 20 l-449 0 -24
-25z"/>
<path d="M3022 1460 c-33 -31 -30 -92 4 -119 26 -21 37 -21 471 -21 l444 0 24
25 c16 15 25 36 25 55 0 19 -9 40 -25 55 l-24 25 -449 0 c-437 0 -449 0 -470
-20z"/>
</g>
</svg>
