<?xml version="1.0" standalone="no"?>
<!DOCTYPE svg PUBLIC "-//W3C//DTD SVG 20010904//EN"
 "http://www.w3.org/TR/2001/REC-SVG-20010904/DTD/svg10.dtd">
<svg version="1.0" xmlns="http://www.w3.org/2000/svg"
 width="512.000000pt" height="512.000000pt" viewBox="0 0 512.000000 512.000000"
 preserveAspectRatio="xMidYMid meet">
<metadata>
Created by potrace 1.16, written by Peter Selinger 2001-2019
</metadata>
<g transform="translate(0.000000,512.000000) scale(0.100000,-0.100000)"
fill="#000000" stroke="none">
<path d="M2445 5096 c-129 -60 -193 -209 -151 -350 l14 -47 -151 -148 -151
-148 -36 15 c-21 9 -65 16 -110 16 -94 1 -151 -25 -215 -96 -124 -138 -88
-350 75 -442 50 -28 63 -31 140 -31 75 0 91 3 138 30 123 67 179 207 138 340
l-16 50 88 88 c48 49 117 115 153 147 l65 59 45 -15 c61 -22 171 -15 228 13
l44 22 417 -322 c389 -300 417 -324 409 -345 -5 -13 -9 -52 -9 -86 0 -112 66
-213 168 -258 221 -98 463 104 397 332 -9 30 -17 60 -18 65 -1 6 53 68 119
139 l121 127 58 -17 c188 -54 368 81 368 276 0 218 -225 355 -420 257 -125
-64 -186 -221 -138 -357 l15 -42 -89 -97 c-49 -53 -104 -110 -123 -128 l-33
-32 -50 15 c-65 20 -156 13 -216 -16 l-46 -23 -414 320 c-326 251 -413 324
-410 339 2 10 4 53 4 94 1 83 -17 130 -74 194 -74 85 -225 113 -334 62z m208
-169 c88 -82 33 -217 -89 -217 -47 0 -86 25 -109 70 -43 84 19 180 116 180 40
0 53 -5 82 -33z m1885 -301 c86 -44 102 -151 31 -210 -111 -94 -265 37 -189
162 33 54 104 76 158 48z m-2630 -360 c69 -36 96 -102 69 -169 -18 -42 -68
-77 -112 -77 -67 0 -135 66 -135 131 0 37 39 91 80 111 42 22 63 22 98 4z
m2003 -309 c50 -33 73 -85 59 -136 -11 -43 -55 -87 -98 -98 -40 -10 -103 17
-129 56 -57 85 4 199 108 201 14 0 41 -10 60 -23z"/>
<path d="M2324 4012 c-44 -35 -44 -40 -44 -546 0 -267 -3 -486 -7 -486 -25 1
-97 29 -107 41 -31 41 -58 49 -171 49 l-110 0 -17 47 -17 47 69 72 c80 82 94
111 85 172 -5 37 -19 57 -83 124 -108 113 -144 138 -202 138 -54 0 -92 -24
-174 -108 l-48 -50 -42 18 -41 19 -5 115 c-5 105 -7 117 -30 142 -42 45 -78
54 -217 54 -142 0 -179 -11 -217 -63 -17 -23 -21 -47 -24 -138 l-4 -111 -42
-18 -41 -18 -70 68 c-38 37 -80 73 -92 79 -26 13 -83 14 -115 2 -31 -12 -142
-114 -190 -174 -34 -43 -38 -55 -38 -104 l0 -55 78 -82 79 -81 -20 -47 -21
-48 -112 0 c-106 0 -114 -2 -143 -25 -43 -37 -54 -81 -53 -220 1 -204 27 -235
203 -235 l106 0 18 -46 17 -46 -59 -62 c-33 -33 -68 -72 -77 -86 -25 -37 -21
-110 8 -153 l24 -36 -28 -69 c-196 -483 -119 -1060 200 -1484 247 -328 607
-540 1019 -599 134 -19 421 -6 552 24 194 46 417 149 556 256 48 37 53 45 53
80 0 31 -6 44 -26 60 -40 31 -71 26 -148 -27 -180 -123 -370 -199 -581 -232
-102 -16 -318 -13 -426 5 -570 99 -1023 548 -1125 1115 -24 129 -24 355 0 475
10 49 31 131 47 182 l30 92 37 -25 c28 -20 47 -25 80 -22 23 2 42 1 42 -2 0
-3 -9 -30 -21 -60 -60 -157 -83 -399 -55 -578 85 -556 519 -966 1083 -1023
387 -39 796 131 1038 434 221 276 310 601 259 944 -38 260 -152 484 -343 673
-109 108 -207 177 -345 241 -64 29 -94 48 -91 57 3 8 8 45 11 83 8 82 -3 82
162 4 148 -71 245 -139 368 -257 207 -200 335 -434 395 -721 29 -135 30 -359
4 -497 -38 -202 -123 -402 -237 -560 -79 -110 -82 -164 -10 -191 45 -17 72 0
137 89 147 199 253 470 281 719 l7 63 818 2 818 3 23 22 c27 27 28 85 2 114
-14 16 -31 19 -101 19 l-83 0 0 304 c0 195 -4 314 -11 335 -19 54 -75 68 -123
30 l-26 -20 0 -325 0 -324 -130 0 -130 0 0 1000 0 1000 130 0 130 0 0 -539 0
-540 26 -20 c47 -37 103 -22 124 33 14 38 14 1097 -1 1149 -7 26 -21 44 -42
57 -29 18 -52 20 -246 20 l-213 0 -34 -34 -34 -34 0 -1046 0 -1046 -30 0 -30
0 0 800 c0 879 2 853 -60 885 -26 14 -63 16 -246 13 l-216 -3 -29 -33 -29 -32
0 -815 0 -815 -30 0 -30 0 0 1005 c0 1116 3 1062 -64 1090 -51 22 -415 21
-456 0 -62 -32 -60 -8 -60 -589 l0 -531 -27 28 -28 27 -5 371 -5 371 -24 19
c-32 26 -77 24 -106 -6 l-25 -24 0 -290 0 -290 -62 43 c-35 24 -93 60 -130 80
l-68 38 0 484 0 484 130 0 130 0 0 -130 c0 -126 1 -132 25 -155 29 -30 74 -32
106 -6 24 19 24 22 24 201 l0 182 -33 29 -32 29 -223 0 c-195 0 -225 -3 -243
-18z m-1072 -426 c4 -153 6 -155 211 -232 61 -23 105 -5 191 76 l72 69 57 -57
57 -57 -76 -76 c-98 -98 -102 -120 -50 -246 21 -48 47 -98 58 -111 29 -31 78
-42 181 -42 l87 0 0 -80 0 -80 -103 0 c-151 0 -164 -9 -227 -157 -50 -118 -42
-148 64 -253 l66 -64 -57 -58 -57 -57 -77 74 c-97 93 -121 99 -222 60 -167
-65 -177 -78 -177 -234 l0 -101 -85 0 -85 0 0 109 c0 156 -10 166 -213 243
-54 20 -95 2 -179 -79 l-78 -76 -57 57 -57 57 61 62 c80 82 93 104 93 152 0
57 -67 212 -103 239 -24 18 -46 22 -137 24 l-108 4 -6 39 c-3 21 -3 57 0 78
l6 39 102 4 c138 5 159 18 205 123 36 86 47 139 36 182 -3 14 -38 60 -78 100
l-71 74 57 57 57 57 73 -73 c108 -107 132 -109 304 -32 83 38 93 59 93 195 l0
105 84 0 84 0 4 -114z m2088 -1041 c0 -823 -2 -975 -14 -975 -16 0 -26 30 -26
86 0 156 -86 439 -187 617 l-33 59 0 594 0 594 130 0 130 0 0 -975z m640 -205
l0 -770 -130 0 -130 0 0 770 0 770 130 0 130 0 0 -770z m-1918 190 c37 -11 87
-29 111 -39 43 -19 44 -21 43 -61 0 -33 4 -46 23 -61 30 -25 85 -25 110 0 19
19 20 18 57 -12 65 -51 153 -139 191 -190 34 -47 35 -48 17 -68 -11 -12 -18
-34 -17 -57 1 -48 33 -75 84 -70 l38 3 25 -65 c34 -85 66 -214 66 -261 l0 -37
-116 -4 c-108 -3 -117 -5 -135 -27 -25 -30 -24 -72 2 -105 20 -25 23 -26 138
-26 l118 0 -9 -62 c-10 -78 -42 -195 -69 -259 -20 -45 -23 -48 -50 -42 -35 7
-76 -17 -89 -53 -7 -18 -5 -35 7 -62 9 -20 17 -40 17 -44 2 -17 -116 -146
-182 -199 l-74 -59 -25 20 c-34 27 -66 25 -100 -4 -22 -19 -28 -32 -27 -64 1
-39 0 -41 -50 -62 -68 -28 -188 -59 -258 -67 l-58 -6 0 116 c0 113 -1 116 -26
136 -30 24 -71 27 -96 7 -28 -21 -38 -62 -38 -162 l0 -94 -25 0 c-48 0 -180
32 -257 62 l-78 29 0 44 c0 74 -67 109 -124 64 l-27 -21 -71 59 c-40 33 -98
91 -131 131 -57 68 -58 72 -43 94 9 12 16 39 16 59 0 49 -39 83 -87 76 -29 -5
-32 -3 -51 41 -30 71 -59 171 -67 232 -3 30 -9 63 -11 73 -5 15 5 17 115 17
117 0 120 1 140 26 26 33 27 75 2 105 -18 22 -27 24 -138 27 l-119 4 8 61 c18
134 73 285 145 401 l31 49 3 -115 c6 -185 29 -203 249 -203 162 0 183 6 220
68 16 26 20 51 20 137 l0 105 47 17 47 17 76 -74 c130 -126 180 -118 342 54
116 122 116 175 2 292 l-75 77 14 35 15 34 58 -9 c33 -4 89 -17 126 -28z"/>
<path d="M1065 3328 c-143 -27 -283 -135 -348 -268 -118 -240 -47 -505 174
-654 156 -106 390 -105 555 2 145 94 224 245 224 428 0 317 -289 552 -605 492z
m252 -188 c112 -55 183 -160 191 -284 5 -85 -6 -133 -50 -206 -88 -146 -278
-205 -431 -132 -246 116 -277 442 -56 594 108 75 230 84 346 28z"/>
<path d="M1086 3046 c-146 -55 -195 -257 -88 -369 108 -114 293 -92 367 44 24
45 27 59 23 123 -4 88 -34 141 -103 181 -55 33 -142 42 -199 21z"/>
<path d="M1726 1588 c-25 -23 -328 -527 -341 -568 -21 -65 64 -125 121 -86 11
8 83 120 159 249 l138 234 161 -93 c172 -100 209 -111 246 -74 13 13 20 33 20
59 0 33 -5 44 -32 64 -63 47 -405 237 -426 237 -11 0 -32 -10 -46 -22z"/>
<path d="M3510 1252 c-15 -12 -22 -29 -23 -55 -1 -35 7 -45 103 -142 l105
-105 -97 -97 c-53 -54 -102 -110 -107 -125 -13 -34 -1 -70 31 -92 48 -34 64
-24 220 132 194 194 194 170 5 359 -131 131 -146 143 -179 143 -20 0 -46 -8
-58 -18z"/>
<path d="M4030 1250 c-13 -13 -20 -33 -20 -56 0 -33 10 -47 102 -140 l102
-104 -102 -104 c-96 -97 -102 -106 -102 -144 0 -32 6 -45 26 -61 51 -40 66
-32 226 126 195 193 194 170 6 360 -133 134 -145 143 -180 143 -25 0 -45 -7
-58 -20z"/>
<path d="M4550 1248 c-12 -13 -20 -35 -20 -56 0 -31 12 -48 105 -141 l105
-107 -105 -104 c-87 -87 -105 -110 -105 -135 0 -64 60 -101 117 -71 15 8 85
72 156 144 173 176 174 160 -16 350 -132 131 -145 142 -179 142 -25 0 -44 -7
-58 -22z"/>
</g>
</svg>
