<?xml version="1.0" standalone="no"?>
<!DOCTYPE svg PUBLIC "-//W3C//DTD SVG 20010904//EN"
 "http://www.w3.org/TR/2001/REC-SVG-20010904/DTD/svg10.dtd">
<svg version="1.0" xmlns="http://www.w3.org/2000/svg"
 width="512.000000pt" height="512.000000pt" viewBox="0 0 512.000000 512.000000"
 preserveAspectRatio="xMidYMid meet">
<metadata>
Created by potrace 1.16, written by Peter Selinger 2001-2019
</metadata>
<g transform="translate(0.000000,512.000000) scale(0.100000,-0.100000)"
fill="#000000" stroke="none">
<path d="M2316 4928 c-41 -40 -375 -423 -399 -458 -10 -14 -17 -43 -17 -68 0
-35 6 -49 29 -73 28 -27 34 -29 114 -29 l85 0 4 -106 c3 -97 5 -107 27 -125
30 -25 72 -24 105 2 26 20 26 21 26 168 0 119 -3 151 -16 170 -20 28 -72 51
-114 51 -16 0 -30 2 -30 5 0 11 263 306 270 303 4 -2 66 -70 138 -153 l130
-150 -47 -6 c-61 -8 -87 -23 -106 -59 -13 -25 -15 -96 -15 -470 l0 -440 -105
0 -105 0 -2 181 -3 182 -27 20 c-20 15 -35 18 -62 13 -60 -11 -66 -36 -66
-251 0 -203 6 -235 55 -273 26 -21 38 -22 207 -22 140 0 185 3 208 15 60 31
60 32 60 510 l0 435 80 0 c115 0 160 30 160 106 0 40 -13 57 -193 264 -256
294 -252 290 -309 290 -41 0 -53 -5 -82 -32z"/>
<path d="M3475 4171 c-48 -29 -73 -63 -84 -111 -14 -59 -15 -1242 -1 -1289 11
-41 36 -60 75 -60 39 0 64 19 75 60 6 20 10 284 10 646 l0 613 150 0 150 0 0
-1400 0 -1400 -150 0 -149 0 -3 636 -3 636 -28 24 c-36 30 -68 30 -104 0 l-28
-24 -3 -636 -3 -636 -79 0 -80 0 0 945 c0 1033 3 985 -57 1048 -39 40 -79 47
-268 47 -193 0 -233 -11 -276 -71 l-24 -34 -3 -967 -2 -968 -85 0 -85 0 0 743
0 743 -22 44 c-17 33 -35 51 -68 68 -41 20 -57 22 -230 22 -173 0 -187 -2
-225 -23 -22 -13 -49 -40 -62 -62 l-23 -40 0 -747 0 -748 -85 0 -85 0 0 586 0
586 -22 40 c-42 73 -69 83 -264 86 -231 5 -284 -12 -325 -102 -16 -36 -19 -69
-19 -263 0 -144 4 -231 11 -247 21 -46 99 -57 131 -19 9 12 14 78 18 242 l5
226 150 0 150 0 3 -567 2 -568 -155 0 -155 0 0 218 c0 215 0 219 -23 240 -32
30 -81 29 -112 -3 -25 -24 -25 -24 -25 -240 l0 -215 -155 0 -155 0 2 1168 3
1167 637 5 c622 5 637 5 652 25 21 28 20 78 -3 106 l-19 24 -659 0 -659 0 -41
-27 c-22 -14 -48 -43 -59 -65 -18 -37 -19 -81 -22 -1238 -2 -660 0 -1219 3
-1243 4 -24 15 -51 28 -62 21 -20 42 -20 2017 -20 1975 0 1996 0 2017 20 13
11 24 38 28 62 3 24 5 583 3 1243 -3 1157 -4 1201 -22 1238 -11 22 -37 51 -59
65 -39 26 -45 27 -183 27 -164 0 -184 -8 -184 -75 0 -68 13 -74 152 -80 l123
-5 3 -1167 2 -1168 -210 0 -210 0 0 1384 c0 893 -4 1402 -10 1437 -7 35 -20
63 -38 82 -51 54 -65 57 -274 57 -171 0 -196 -2 -223 -19z m-417 -2003 l2
-938 -155 0 -155 0 0 940 0 941 153 -3 152 -3 3 -937z m-798 -208 l0 -730
-155 0 -155 0 0 730 0 730 155 0 155 0 0 -730z"/>
<path d="M600 4039 c-207 -35 -376 -216 -400 -431 -6 -49 -10 -623 -10 -1390
l0 -1308 -69 0 c-54 0 -74 -4 -95 -21 -26 -20 -26 -21 -26 -163 0 -153 11
-208 58 -301 32 -64 143 -175 207 -207 122 -62 -48 -58 2295 -58 2343 0 2173
-4 2295 58 64 32 175 143 207 207 47 93 58 148 58 301 0 142 0 143 -26 163
-21 17 -41 21 -95 21 l-68 0 -3 1368 -3 1367 -26 67 c-54 140 -131 226 -254
284 -85 40 -164 54 -316 54 -103 0 -119 -2 -143 -21 -20 -16 -26 -29 -26 -58
0 -71 9 -75 182 -82 99 -4 168 -11 196 -21 93 -34 171 -111 209 -208 17 -42
18 -128 21 -1397 l2 -1353 -857 0 c-965 0 -898 5 -958 -76 -55 -76 -45 -74
-402 -74 -230 1 -324 4 -339 13 -12 7 -37 32 -56 57 -64 86 7 80 -956 80
l-852 0 2 1353 c3 1269 4 1355 21 1397 38 96 114 172 209 208 38 15 118 17
703 20 658 3 659 3 682 24 29 27 30 77 4 109 l-19 24 -649 1 c-356 1 -673 -2
-703 -7z m1447 -3332 c18 -25 54 -55 85 -72 l53 -30 370 0 370 0 53 30 c31 17
67 47 85 72 l30 43 934 0 933 0 0 -75 c0 -108 -27 -174 -104 -251 -43 -43 -79
-68 -121 -85 l-60 -24 -2115 0 -2115 0 -60 24 c-42 17 -78 42 -121 85 -77 77
-104 143 -104 251 l0 75 928 0 929 0 30 -43z"/>
<path d="M2844 4038 c-23 -11 -44 -48 -44 -77 0 -10 9 -30 21 -45 l20 -26 180
0 c166 0 180 1 199 20 31 31 27 93 -6 119 -25 19 -39 21 -188 20 -89 0 -171
-5 -182 -11z"/>
<path d="M2844 3719 c-23 -12 -44 -49 -44 -78 0 -10 9 -30 21 -45 l20 -26 180
0 c166 0 180 1 199 20 28 28 27 90 -1 116 -19 17 -40 19 -188 21 -102 1 -174
-2 -187 -8z"/>
</g>
</svg>
