<?xml version="1.0" standalone="no"?>
<!DOCTYPE svg PUBLIC "-//W3C//DTD SVG 20010904//EN"
 "http://www.w3.org/TR/2001/REC-SVG-20010904/DTD/svg10.dtd">
<svg version="1.0" xmlns="http://www.w3.org/2000/svg"
 width="512.000000pt" height="512.000000pt" viewBox="0 0 512.000000 512.000000"
 preserveAspectRatio="xMidYMid meet">
<metadata>
Created by potrace 1.16, written by Peter Selinger 2001-2019
</metadata>
<g transform="translate(0.000000,512.000000) scale(0.100000,-0.100000)"
fill="#000000" stroke="none">
<path d="M407 5102 c-15 -9 -36 -35 -47 -58 -19 -39 -20 -64 -20 -673 l0 -633
30 -30 c26 -25 36 -29 63 -24 71 13 67 -21 67 667 l0 619 1305 0 1305 0 0
-352 c0 -394 1 -400 69 -445 34 -23 36 -23 392 -23 l358 0 3 -206 c3 -202 3
-206 27 -225 32 -26 82 -25 109 4 21 23 22 30 22 274 l0 250 -29 39 c-34 46
-785 794 -821 818 -22 15 -144 16 -1415 16 -1298 -1 -1392 -2 -1418 -18z
m3143 -527 l275 -275 -278 0 -277 0 0 275 c0 151 1 275 3 275 1 0 126 -124
277 -275z"/>
<path d="M769 4337 c-66 -44 -70 -63 -67 -334 3 -266 3 -266 72 -317 26 -20
41 -21 280 -21 279 0 286 1 326 68 18 29 20 52 20 282 0 362 17 345 -348 345
-242 0 -250 -1 -283 -23z m471 -322 l0 -195 -190 0 -190 0 0 195 0 195 190 0
190 0 0 -195z"/>
<path d="M1530 4240 c-31 -31 -27 -93 6 -119 26 -21 35 -21 651 -21 l624 0 24
25 c33 32 34 83 2 113 l-23 22 -632 0 c-619 0 -632 0 -652 -20z"/>
<path d="M4371 3918 c-24 -12 -55 -37 -68 -57 -14 -20 -360 -718 -770 -1551
l-745 -1514 7 -176 c8 -202 15 -234 59 -261 65 -39 81 -33 316 135 l85 61 217
435 c142 285 218 446 218 466 0 46 -30 78 -73 78 -19 0 -43 -7 -53 -14 -10 -8
-71 -124 -137 -257 l-119 -242 -89 44 c-49 25 -89 48 -89 51 0 8 998 2036
1005 2043 5 4 185 -79 185 -85 0 -1 -144 -293 -321 -650 -227 -460 -321 -659
-321 -683 0 -21 8 -41 21 -54 27 -27 85 -28 110 -2 10 11 231 452 491 980 460
934 473 962 474 1021 1 51 -4 68 -29 110 -26 42 -43 55 -123 97 -110 56 -175
63 -251 25z m173 -168 c35 -17 67 -38 71 -47 4 -11 -15 -61 -49 -130 l-55
-113 -91 45 c-49 25 -90 47 -90 50 0 3 25 55 55 115 42 85 60 110 75 110 11 0
49 -14 84 -30z m-130 -482 l-24 -48 -90 45 c-50 25 -90 47 -90 50 0 2 10 24
22 49 l21 44 93 -46 92 -46 -24 -48z m-1262 -2352 l87 -40 -25 -47 -24 -48
-87 41 c-49 22 -90 42 -92 45 -8 6 39 95 47 91 5 -2 47 -21 94 -42z"/>
<path d="M1565 3923 c-56 -14 -76 -92 -35 -133 20 -20 33 -20 655 -20 622 0
635 0 655 20 21 21 26 69 10 100 -20 38 -54 40 -669 39 -328 -1 -605 -4 -616
-6z"/>
<path d="M369 3501 l-24 -19 -3 -1683 c-2 -1661 -2 -1683 18 -1723 40 -83
-143 -76 1863 -76 l1784 0 27 21 c58 46 56 10 56 843 l0 765 -26 20 c-45 35
-95 26 -119 -20 -13 -24 -15 -136 -15 -754 l0 -725 -1715 0 -1715 0 0 1665 c0
1652 0 1665 -20 1685 -26 26 -80 26 -111 1z"/>
<path d="M771 3438 c-67 -45 -71 -65 -71 -323 0 -268 7 -298 79 -334 37 -19
58 -21 273 -21 261 0 282 5 325 69 22 33 23 41 23 288 l0 254 -39 42 -40 42
-258 3 c-256 3 -259 3 -292 -20z m469 -328 l0 -190 -190 0 -190 0 0 190 0 190
190 0 190 0 0 -190z"/>
<path d="M1536 3339 c-34 -27 -37 -88 -4 -119 22 -20 30 -20 855 -20 l834 0
26 26 c21 21 24 32 19 62 -12 77 51 72 -876 72 -822 0 -827 0 -854 -21z"/>
<path d="M1530 3000 c-28 -28 -27 -90 1 -116 20 -18 51 -19 833 -22 540 -2
823 0 847 7 57 17 76 77 38 125 l-20 26 -840 0 c-826 0 -839 0 -859 -20z"/>
<path d="M780 2542 c-22 -12 -44 -35 -58 -63 -22 -43 -23 -51 -20 -284 3 -235
3 -241 27 -274 41 -57 64 -61 326 -61 254 0 266 2 315 55 l25 27 3 257 c3 254
3 257 -20 291 -44 66 -64 70 -328 70 -208 0 -239 -2 -270 -18z m460 -332 l0
-190 -190 0 -190 0 0 190 0 190 190 0 190 0 0 -190z"/>
<path d="M1560 2453 c-52 -20 -69 -94 -30 -133 20 -20 33 -20 770 -20 737 0
750 0 770 20 30 30 30 83 -1 115 -19 20 -34 20 -757 22 -405 1 -744 -1 -752
-4z"/>
<path d="M1530 2100 c-31 -31 -27 -93 7 -119 26 -21 28 -21 824 -19 886 3 824
-2 836 70 4 30 1 41 -20 62 l-26 26 -801 0 c-787 0 -800 0 -820 -20z"/>
<path d="M795 1646 c-37 -17 -70 -52 -84 -89 -7 -17 -11 -119 -11 -255 0 -254
5 -276 69 -319 33 -22 41 -23 285 -23 277 0 284 2 327 66 17 26 19 51 19 279
0 230 -2 253 -20 282 -40 66 -48 68 -315 70 -186 2 -247 0 -270 -11z m445
-341 l0 -195 -190 0 -190 0 0 195 0 195 190 0 190 0 0 -195z"/>
<path d="M1532 1534 c-30 -21 -31 -93 -1 -120 20 -18 46 -19 684 -19 638 0
664 1 684 19 28 26 29 88 1 116 -20 20 -33 20 -683 20 -583 0 -665 -2 -685
-16z"/>
<path d="M1536 1199 c-33 -26 -37 -88 -6 -119 20 -20 33 -20 568 -20 538 0
549 0 570 20 33 31 30 92 -4 119 -26 21 -36 21 -564 21 -528 0 -538 0 -564
-21z"/>
</g>
</svg>
