<?xml version="1.0" standalone="no"?>
<!DOCTYPE svg PUBLIC "-//W3C//DTD SVG 20010904//EN"
 "http://www.w3.org/TR/2001/REC-SVG-20010904/DTD/svg10.dtd">
<svg version="1.0" xmlns="http://www.w3.org/2000/svg"
 width="512.000000pt" height="512.000000pt" viewBox="0 0 512.000000 512.000000"
 preserveAspectRatio="xMidYMid meet">
<metadata>
Created by potrace 1.16, written by Peter Selinger 2001-2019
</metadata>
<g transform="translate(0.000000,512.000000) scale(0.100000,-0.100000)"
fill="#000000" stroke="none">
<path d="M325 5106 c-129 -41 -227 -126 -284 -245 l-36 -76 0 -1860 0 -1860
32 -68 c36 -76 116 -166 181 -204 23 -14 70 -34 103 -44 58 -18 107 -19 960
-19 988 0 942 -3 974 60 13 25 15 95 15 463 0 434 0 434 -22 467 -37 54 -69
72 -141 77 -80 7 -111 0 -138 -32 -12 -13 -34 -29 -49 -35 -39 -16 -84 9 -110
60 -33 65 -23 129 28 183 36 38 75 36 123 -8 37 -34 42 -35 116 -35 63 0 84 4
118 25 76 44 75 40 75 494 l0 401 375 0 c372 0 375 0 375 -21 0 -11 -13 -37
-30 -57 -89 -111 -52 -281 79 -359 127 -76 290 -62 395 35 85 80 100 229 31
322 -14 19 -25 44 -25 57 l0 23 420 0 c280 0 427 4 443 11 13 6 31 23 40 39
16 26 17 106 17 927 0 780 -2 907 -16 958 -32 125 -123 234 -244 293 l-75 37
-1845 2 c-1474 1 -1853 -1 -1885 -11z m1786 -548 c0 -285 4 -413 12 -438 7
-19 27 -44 46 -57 29 -20 47 -23 125 -23 91 0 92 0 129 35 47 45 87 47 127 7
61 -61 61 -159 0 -217 -42 -40 -78 -38 -131 9 l-42 38 -93 -4 c-82 -3 -97 -7
-120 -28 -53 -49 -54 -58 -54 -478 l0 -390 -90 -4 c-107 -5 -135 -22 -133 -83
2 -63 22 -75 130 -75 l93 0 0 -380 c0 -323 -2 -380 -14 -380 -8 0 -38 14 -66
32 -65 40 -156 50 -224 24 -123 -47 -202 -220 -167 -363 16 -63 71 -146 119
-177 84 -56 201 -54 281 5 75 54 71 74 71 -346 l0 -375 -853 0 c-757 0 -859 2
-901 16 -64 22 -147 100 -177 166 l-24 53 -3 863 -3 862 404 0 c403 0 404 0
437 23 56 37 75 80 75 168 0 74 -1 77 -39 119 -32 36 -37 47 -32 74 11 59 97
106 170 92 46 -9 106 -65 106 -100 0 -16 -14 -41 -35 -65 -34 -37 -35 -40 -35
-122 0 -96 17 -135 72 -169 30 -18 51 -20 221 -20 174 0 188 1 207 20 28 28
27 90 -1 116 -18 17 -41 19 -180 22 -152 4 -159 5 -159 24 0 11 11 33 25 49
43 52 57 142 33 221 -16 56 -79 122 -146 155 -49 24 -69 28 -142 28 -64 -1
-96 -6 -131 -21 -60 -28 -115 -78 -142 -128 -42 -80 -22 -226 37 -275 9 -8 16
-22 16 -32 0 -18 -15 -19 -380 -19 l-381 0 3 858 3 857 26 55 c39 82 111 147
189 171 14 4 411 8 883 8 l857 1 1 -402z m1922 386 c60 -20 131 -84 165 -148
l27 -51 3 -867 2 -868 -392 0 c-216 0 -411 -5 -433 -10 -24 -5 -51 -21 -67
-40 -27 -29 -28 -35 -28 -131 0 -93 2 -102 25 -125 53 -53 58 -92 17 -134 -41
-40 -101 -57 -152 -41 -52 15 -89 49 -96 87 -5 27 0 38 32 74 l39 43 0 91 c0
100 -11 130 -62 163 -25 16 -65 18 -435 21 l-408 3 0 370 0 369 24 0 c13 0 29
-7 37 -16 48 -58 187 -77 265 -37 171 89 214 338 83 486 -53 60 -109 87 -185
87 -58 0 -152 -33 -168 -59 -4 -6 -18 -11 -32 -11 l-24 0 0 380 0 380 858 0
c755 0 864 -2 905 -16z"/>
<path d="M2872 2247 c-21 -22 -22 -33 -22 -184 l0 -162 26 -20 c27 -21 59 -26
89 -15 31 12 45 59 45 154 l0 90 370 0 c414 0 394 4 340 -72 -35 -50 -52 -126
-41 -185 33 -177 254 -274 433 -190 104 48 157 127 158 232 0 59 -33 153 -59
169 -6 4 -11 16 -11 27 0 18 11 19 385 19 l386 0 -3 -857 -3 -858 -26 -55
c-30 -63 -86 -122 -144 -153 -40 -22 -41 -22 -912 -25 l-873 -2 0 377 c0 225
-4 393 -10 415 -15 52 -77 105 -135 114 -81 12 -130 1 -175 -40 -22 -20 -47
-36 -55 -36 -46 0 -94 50 -109 113 -10 40 11 106 44 139 40 40 81 38 126 -7
34 -34 36 -35 118 -35 100 0 138 20 174 90 20 40 22 59 22 193 0 188 -12 217
-89 217 -16 0 -37 -10 -49 -23 -21 -22 -22 -33 -22 -170 0 -170 0 -171 -90
-115 -89 55 -208 49 -285 -14 -140 -116 -148 -345 -16 -477 87 -87 237 -91
328 -9 11 11 29 18 40 16 17 -3 18 -25 23 -418 5 -453 4 -443 65 -475 27 -14
124 -16 951 -13 l920 3 75 37 c100 49 171 121 218 218 l36 75 3 947 c2 939 2
948 -18 968 -19 19 -32 20 -496 20 -431 0 -479 -2 -505 -17 -44 -26 -59 -69
-59 -167 0 -86 0 -87 35 -122 45 -45 48 -88 8 -126 -55 -52 -111 -60 -181 -27
-53 26 -75 67 -60 111 6 16 18 34 27 41 31 21 41 54 41 132 0 84 -13 121 -56
154 -26 21 -35 21 -494 21 l-467 0 -21 -23z"/>
</g>
</svg>
