<?xml version="1.0" standalone="no"?>
<!DOCTYPE svg PUBLIC "-//W3C//DTD SVG 20010904//EN"
 "http://www.w3.org/TR/2001/REC-SVG-20010904/DTD/svg10.dtd">
<svg version="1.0" xmlns="http://www.w3.org/2000/svg"
 width="512.000000pt" height="512.000000pt" viewBox="0 0 512.000000 512.000000"
 preserveAspectRatio="xMidYMid meet">
<metadata>
Created by potrace 1.16, written by Peter Selinger 2001-2019
</metadata>
<g transform="translate(0.000000,512.000000) scale(0.100000,-0.100000)"
fill="#000000" stroke="none">
<path d="M2287 4475 c-95 -18 -214 -66 -270 -109 -47 -36 -59 -80 -33 -121 27
-41 68 -41 139 -2 110 62 187 82 312 81 93 0 122 -5 188 -27 99 -35 169 -79
230 -147 79 -88 137 -225 137 -323 l0 -38 -37 30 c-69 54 -127 49 -210 -18
l-38 -30 -246 -3 -245 -3 -76 -38 c-137 -68 -224 -187 -250 -343 -12 -68 -17
-79 -34 -82 -19 -3 -24 6 -40 65 -15 53 -19 102 -19 223 0 172 13 234 81 377
40 86 42 116 9 148 -27 28 -51 31 -90 13 -32 -15 -94 -137 -132 -263 -25 -84
-27 -102 -27 -280 0 -179 2 -195 27 -279 25 -79 26 -90 13 -105 -29 -31 -48
-94 -48 -158 -1 -114 67 -212 171 -248 24 -8 55 -15 67 -15 18 0 25 -8 33 -37
6 -21 11 -43 11 -49 0 -7 21 -54 46 -105 37 -72 64 -110 125 -172 l79 -80 -1
-66 0 -66 -64 -49 c-105 -81 -144 -124 -151 -165 -6 -35 -17 -44 -187 -161
-111 -76 -208 -151 -249 -193 -66 -67 -68 -68 -95 -54 -15 8 -83 33 -150 57
-148 51 -151 58 -64 136 70 64 117 134 141 211 l18 58 61 12 c102 21 152 58
190 143 33 72 22 187 -22 238 -12 14 -13 32 -5 102 34 313 -91 569 -341 699
-106 55 -186 74 -306 74 -115 0 -178 -15 -314 -73 -52 -22 -100 -40 -106 -40
-6 0 -43 -16 -84 -35 -134 -64 -227 -190 -252 -341 -9 -59 -8 -91 10 -216 l20
-147 -24 -43 c-33 -61 -40 -124 -21 -190 29 -99 103 -159 213 -174 48 -6 52
-9 57 -38 13 -66 66 -158 126 -217 46 -45 60 -65 60 -87 0 -28 -4 -31 -108
-67 -210 -75 -242 -95 -242 -151 0 -46 29 -77 71 -77 19 0 92 23 164 51 l130
51 15 -22 c64 -92 131 -130 230 -131 97 0 180 48 235 137 9 14 23 11 128 -27
65 -24 120 -46 123 -49 3 -3 -3 -27 -12 -54 -26 -69 -34 -641 -10 -677 30 -47
111 -41 135 10 7 17 11 114 11 287 0 283 6 323 55 421 45 88 97 138 279 264
97 67 180 122 185 122 5 0 40 -42 79 -94 60 -79 78 -97 117 -112 46 -17 47
-17 143 11 53 15 105 30 115 32 16 5 17 -22 17 -476 l0 -482 25 -24 c25 -26
42 -29 83 -19 51 14 52 26 52 534 0 444 1 471 18 466 9 -3 56 -17 104 -31 139
-41 171 -28 276 112 l67 90 164 -113 c227 -156 283 -215 333 -350 20 -54 22
-84 27 -350 5 -216 9 -295 19 -307 19 -22 61 -30 93 -17 48 20 51 43 45 352
-3 156 -6 296 -8 311 -3 28 0 30 122 79 83 33 126 46 128 38 3 -7 17 -27 34
-45 105 -121 318 -98 396 41 7 13 24 9 113 -26 188 -75 240 -114 296 -222 24
-47 27 -68 32 -178 4 -71 12 -135 19 -147 18 -33 76 -41 110 -16 26 19 27 24
30 134 4 130 -8 198 -48 284 -64 135 -154 206 -368 290 -144 57 -152 61 -152
87 0 21 10 34 42 56 24 16 52 39 62 51 14 15 31 21 61 21 182 0 343 98 422
257 33 67 38 85 41 169 5 117 -3 150 -83 335 -35 81 -75 193 -89 248 -37 149
-91 247 -196 351 -67 68 -103 94 -170 128 -194 96 -394 107 -591 31 -223 -86
-380 -273 -437 -524 -11 -49 -48 -151 -81 -227 -76 -174 -91 -225 -91 -314 0
-253 206 -454 465 -454 32 0 47 -6 66 -26 13 -14 39 -34 57 -46 27 -17 33 -25
30 -51 -3 -29 -9 -33 -147 -89 -79 -32 -145 -57 -146 -56 -1 2 -16 23 -33 48
-51 76 -130 143 -311 269 -168 116 -175 122 -190 168 -14 41 -30 59 -113 128
l-97 80 -1 68 0 69 64 61 c35 34 80 89 101 121 38 60 95 201 95 236 0 16 7 20
33 20 41 0 124 39 161 76 16 16 40 53 54 83 21 45 24 64 20 121 -4 44 -13 81
-28 108 l-23 41 27 198 c14 109 26 228 26 264 0 204 -140 395 -338 465 -37 13
-75 24 -84 24 -9 0 -31 20 -47 44 -48 69 -155 161 -234 199 -152 75 -340 102
-500 72z m943 -576 c56 -58 93 -140 98 -215 6 -83 -37 -384 -54 -384 -33 0
-44 13 -44 54 0 60 -26 150 -65 228 -33 65 -34 69 -24 125 11 58 7 212 -7 247
-7 17 -6 17 25 1 18 -9 50 -34 71 -56z m-301 -275 c44 -40 72 -78 98 -132 l38
-76 3 -298 c3 -254 1 -308 -13 -356 -66 -227 -267 -382 -494 -382 -199 0 -379
113 -464 290 -52 108 -59 168 -55 460 3 241 4 258 26 305 30 65 85 122 147
151 48 23 58 24 287 24 138 0 248 4 264 10 15 6 40 22 56 35 16 14 33 25 38
25 5 0 36 -25 69 -56z m1440 -449 c217 -52 381 -224 427 -449 10 -47 46 -147
90 -250 68 -157 74 -177 74 -239 0 -85 -31 -157 -93 -214 -40 -37 -131 -82
-142 -71 -3 2 0 20 5 39 6 18 10 55 10 81 0 38 -5 50 -26 67 -58 46 -116 13
-134 -77 -24 -112 -91 -202 -189 -249 -48 -24 -68 -28 -141 -28 -69 0 -94 5
-135 25 -74 36 -148 114 -174 185 -21 56 -22 71 -19 319 3 250 4 263 27 314
13 28 26 52 28 52 3 0 42 -18 86 -40 112 -55 190 -70 375 -70 l152 0 0 -105
c0 -92 3 -108 20 -125 27 -27 83 -27 110 0 18 18 20 33 20 155 0 221 -3 223
-294 234 -229 9 -269 20 -372 94 -49 35 -67 42 -106 42 -59 0 -92 -29 -142
-124 -59 -114 -66 -158 -66 -442 0 -140 5 -274 11 -298 5 -24 7 -46 5 -49 -11
-10 -94 29 -132 62 -22 19 -53 58 -69 87 -26 47 -30 64 -30 134 0 77 2 86 73
247 39 92 79 198 87 236 40 194 134 322 298 408 115 60 243 78 366 49z m-3336
-30 c252 -53 424 -294 393 -549 -7 -54 -9 -56 -37 -56 -19 0 -29 5 -29 15 0
25 -30 65 -61 81 -20 10 -63 14 -153 14 -202 0 -324 33 -455 124 -72 49 -129
50 -172 5 -35 -38 -76 -122 -90 -188 -10 -47 -13 -51 -39 -51 -32 0 -29 -8
-50 142 -6 42 -8 94 -4 115 17 95 91 192 169 224 345 141 394 153 528 124z
m2272 -35 c9 -10 19 -37 22 -59 5 -36 2 -44 -30 -76 -59 -59 -67 -51 -67 69
l0 105 29 -10 c16 -6 37 -19 46 -29z m-2573 -547 c87 -42 192 -63 341 -70
l139 -6 -4 -206 c-6 -238 -14 -272 -84 -350 -66 -73 -139 -106 -234 -105 -58
0 -86 6 -125 24 -73 35 -138 105 -164 175 -21 56 -22 72 -19 305 2 185 7 252
17 272 l14 28 34 -21 c19 -12 57 -33 85 -46z m1793 -340 c103 -5 189 6 258 32
14 6 17 1 17 -34 l0 -41 -119 -60 -119 -59 -121 56 -121 57 0 42 0 42 48 -15
c26 -8 97 -17 157 -20z m-45 -359 l0 -52 -67 -20 c-135 -40 -153 -45 -157 -41
-1 2 -36 48 -77 103 l-73 98 54 48 54 48 133 -66 133 -67 0 -51z m477 134 c26
-23 47 -45 45 -50 -5 -19 -145 -198 -154 -198 -6 0 -54 14 -109 31 l-99 31 0
54 0 55 123 59 c67 33 127 59 134 59 6 1 33 -18 60 -41z m-1977 -371 c0 -29
-7 -46 -29 -67 -39 -40 -73 -47 -113 -23 -38 22 -58 55 -58 99 l0 31 100 -1
100 -1 0 -38z m3350 -40 c0 -49 -13 -73 -50 -92 -60 -31 -120 13 -120 89 l0
41 85 0 85 0 0 -38z"/>
<path d="M76 1318 c-13 -13 -34 -50 -47 -83 -21 -54 -23 -80 -27 -271 l-4
-211 28 -22 c33 -26 64 -27 96 -1 25 19 25 22 30 197 5 159 8 186 32 255 29
84 27 119 -7 143 -31 22 -72 18 -101 -7z"/>
<path d="M1774 1239 c-17 -19 -19 -41 -22 -237 -3 -231 1 -261 44 -281 36 -16
58 -14 88 10 l26 20 0 235 c0 221 -1 235 -20 254 -28 28 -90 27 -116 -1z"/>
<path d="M3221 1234 c-20 -25 -21 -39 -21 -241 0 -246 5 -267 66 -279 27 -5
42 -2 62 13 l27 20 3 236 c2 226 1 238 -18 257 -31 31 -93 27 -119 -6z"/>
</g>
</svg>
